<?xml version="1.0" encoding="UTF-8"?>
<!DOCTYPE svg PUBLIC "-//W3C//DTD SVG 1.1//EN" "http://www.w3.org/Graphics/SVG/1.1/DTD/svg11.dtd">
<svg xmlns="http://www.w3.org/2000/svg" version="1.1" width="512px" height="512px" style="shape-rendering:geometricPrecision; text-rendering:geometricPrecision; image-rendering:optimizeQuality; fill-rule:evenodd; clip-rule:evenodd" xmlns:xlink="http://www.w3.org/1999/xlink">
<g><path style="opacity:0.986" fill="#fe5022" d="M -0.5,-0.5 C 84.8333,-0.5 170.167,-0.5 255.5,-0.5C 255.5,13.5 255.5,27.5 255.5,41.5C 184.167,41.5 112.833,41.5 41.5,41.5C 41.5,184.167 41.5,326.833 41.5,469.5C 112.833,469.5 184.167,469.5 255.5,469.5C 255.5,483.5 255.5,497.5 255.5,511.5C 170.167,511.5 84.8333,511.5 -0.5,511.5C -0.5,340.833 -0.5,170.167 -0.5,-0.5 Z"/></g>
<g><path style="opacity:0.986" fill="#cc2a00" d="M 255.5,-0.5 C 340.833,-0.5 426.167,-0.5 511.5,-0.5C 511.5,170.167 511.5,340.833 511.5,511.5C 426.167,511.5 340.833,511.5 255.5,511.5C 255.5,497.5 255.5,483.5 255.5,469.5C 326.833,469.5 398.167,469.5 469.5,469.5C 469.5,326.833 469.5,184.167 469.5,41.5C 398.167,41.5 326.833,41.5 255.5,41.5C 255.5,27.5 255.5,13.5 255.5,-0.5 Z"/></g>
<g><path style="opacity:0.982" fill="#fe5022" d="M 111.5,92.5 C 207.5,92.5 303.5,92.5 399.5,92.5C 390.833,190.175 381.999,287.842 373,385.5C 333.857,397.102 294.524,408.102 255,418.5C 215.804,408.118 176.804,397.118 138,385.5C 129.076,287.835 120.243,190.168 111.5,92.5 Z M 166.5,152.5 C 225.833,152.5 285.167,152.5 344.5,152.5C 344.099,163.905 343.099,175.239 341.5,186.5C 295.838,187.5 250.172,187.833 204.5,187.5C 205.5,200.167 206.5,212.833 207.5,225.5C 251.167,225.5 294.833,225.5 338.5,225.5C 335.227,262.174 331.893,298.841 328.5,335.5C 303.997,342.084 279.497,348.751 255,355.5C 230.567,348.522 206.067,341.855 181.5,335.5C 180.387,316.817 179.054,298.15 177.5,279.5C 189.167,279.5 200.833,279.5 212.5,279.5C 213.046,289.176 213.713,298.842 214.5,308.5C 227.964,311.908 241.464,315.241 255,318.5C 268.529,315.243 282.029,311.909 295.5,308.5C 297.047,292.483 298.714,276.483 300.5,260.5C 258.833,260.5 217.167,260.5 175.5,260.5C 172.169,224.528 169.169,188.528 166.5,152.5 Z"/></g>
</svg>
